<svg xmlns="http://www.w3.org/2000/svg" style="background-color: rgb(255, 255, 255);" width="792px" height="509px" xmlns:xlink="http://www.w3.org/1999/xlink" version="1.1"><defs/><g transform="translate(0.5,0.5)"><rect x="109" y="38" width="60" height="35" fill="#ffffff" stroke="#000000"/><g fill="#000000" font-family="Helvetica" text-anchor="middle" font-size="18px"><text x="139" y="63">1</text></g><rect x="109" y="73" width="60" height="35" fill="#ffffff" stroke="#000000"/><g fill="#000000" font-family="Helvetica" text-anchor="middle" font-size="18px"><text x="139" y="98">2</text></g><rect x="109" y="108" width="60" height="35" fill="#ffffff" stroke="#000000"/><g fill="#000000" font-family="Helvetica" text-anchor="middle" font-size="18px"><text x="139" y="133">3</text></g><rect x="49" y="38" width="60" height="105" fill="#ffffff" stroke="#000000"/><g fill="#000000" font-family="Helvetica" text-anchor="middle" font-size="18px"><text x="79" y="98">Ч1</text></g><rect x="109" y="158" width="60" height="35" fill="#ffffff" stroke="#000000"/><g fill="#000000" font-family="Helvetica" text-anchor="middle" font-size="18px"><text x="139" y="183">1</text></g><rect x="109" y="193" width="60" height="35" fill="#ffffff" stroke="#000000"/><g fill="#000000" font-family="Helvetica" text-anchor="middle" font-size="18px"><text x="139" y="218">2</text></g><rect x="109" y="228" width="60" height="35" fill="#ffffff" stroke="#000000"/><g fill="#000000" font-family="Helvetica" text-anchor="middle" font-size="18px"><text x="139" y="253">3</text></g><rect x="49" y="158" width="60" height="105" fill="#ffffff" stroke="#000000"/><g fill="#000000" font-family="Helvetica" text-anchor="middle" font-size="18px"><text x="79" y="218">Ч2</text></g><rect x="109" y="278" width="60" height="35" fill="#ffffff" stroke="#000000"/><g fill="#000000" font-family="Helvetica" text-anchor="middle" font-size="18px"><text x="139" y="303">1</text></g><rect x="109" y="313" width="60" height="35" fill="#ffffff" stroke="#000000"/><g fill="#000000" font-family="Helvetica" text-anchor="middle" font-size="18px"><text x="139" y="338">2</text></g><rect x="109" y="348" width="60" height="35" fill="#ffffff" stroke="#000000"/><g fill="#000000" font-family="Helvetica" text-anchor="middle" font-size="18px"><text x="139" y="373">3</text></g><rect x="49" y="278" width="60" height="105" fill="#ffffff" stroke="#000000"/><g fill="#000000" font-family="Helvetica" text-anchor="middle" font-size="18px"><text x="79" y="338">Ч3</text></g><rect x="109" y="398" width="60" height="35" fill="#ffffff" stroke="#000000"/><g fill="#000000" font-family="Helvetica" text-anchor="middle" font-size="18px"><text x="139" y="423">1</text></g><rect x="109" y="433" width="60" height="35" fill="#ffffff" stroke="#000000"/><g fill="#000000" font-family="Helvetica" text-anchor="middle" font-size="18px"><text x="139" y="458">2</text></g><rect x="109" y="468" width="60" height="35" fill="#ffffff" stroke="#000000"/><g fill="#000000" font-family="Helvetica" text-anchor="middle" font-size="18px"><text x="139" y="493">3</text></g><rect x="49" y="398" width="60" height="105" fill="#ffffff" stroke="#000000"/><g fill="#000000" font-family="Helvetica" text-anchor="middle" font-size="18px"><text x="79" y="458">Ч4</text></g><rect x="669" y="38" width="60" height="35" fill="#ffffff" stroke="#000000"/><g fill="#000000" font-family="Helvetica" text-anchor="middle" font-size="18px"><text x="699" y="63">1</text></g><rect x="669" y="73" width="60" height="35" fill="#ffffff" stroke="#000000"/><g fill="#000000" font-family="Helvetica" text-anchor="middle" font-size="18px"><text x="699" y="98">2</text></g><rect x="669" y="108" width="60" height="35" fill="#ffffff" stroke="#000000"/><g fill="#000000" font-family="Helvetica" text-anchor="middle" font-size="18px"><text x="699" y="133">3</text></g><rect x="729" y="38" width="60" height="105" fill="#ffffff" stroke="#000000"/><g fill="#000000" font-family="Helvetica" text-anchor="middle" font-size="18px"><text x="759" y="98">М1</text></g><rect x="669" y="158" width="60" height="35" fill="#ffffff" stroke="#000000"/><g fill="#000000" font-family="Helvetica" text-anchor="middle" font-size="18px"><text x="699" y="183">1</text></g><rect x="669" y="193" width="60" height="35" fill="#ffffff" stroke="#000000"/><g fill="#000000" font-family="Helvetica" text-anchor="middle" font-size="18px"><text x="699" y="218">2</text></g><rect x="669" y="228" width="60" height="35" fill="#ffffff" stroke="#000000"/><g fill="#000000" font-family="Helvetica" text-anchor="middle" font-size="18px"><text x="699" y="253">3</text></g><rect x="729" y="158" width="60" height="105" fill="#ffffff" stroke="#000000"/><g fill="#000000" font-family="Helvetica" text-anchor="middle" font-size="18px"><text x="759" y="218">М2</text></g><rect x="669" y="278" width="60" height="35" fill="#ffffff" stroke="#000000"/><g fill="#000000" font-family="Helvetica" text-anchor="middle" font-size="18px"><text x="699" y="303">1</text></g><rect x="669" y="313" width="60" height="35" fill="#ffffff" stroke="#000000"/><g fill="#000000" font-family="Helvetica" text-anchor="middle" font-size="18px"><text x="699" y="338">2</text></g><rect x="669" y="348" width="60" height="35" fill="#ffffff" stroke="#000000"/><g fill="#000000" font-family="Helvetica" text-anchor="middle" font-size="18px"><text x="699" y="373">3</text></g><rect x="729" y="278" width="60" height="105" fill="#ffffff" stroke="#000000"/><g fill="#000000" font-family="Helvetica" text-anchor="middle" font-size="18px"><text x="759" y="338">М3</text></g><rect x="669" y="398" width="60" height="35" fill="#ffffff" stroke="#000000"/><g fill="#000000" font-family="Helvetica" text-anchor="middle" font-size="18px"><text x="699" y="423">1</text></g><rect x="669" y="433" width="60" height="35" fill="#ffffff" stroke="#000000"/><g fill="#000000" font-family="Helvetica" text-anchor="middle" font-size="18px"><text x="699" y="458">2</text></g><rect x="669" y="468" width="60" height="35" fill="#ffffff" stroke="#000000"/><g fill="#000000" font-family="Helvetica" text-anchor="middle" font-size="18px"><text x="699" y="493">3</text></g><rect x="729" y="398" width="60" height="105" fill="#ffffff" stroke="#000000"/><g fill="#000000" font-family="Helvetica" text-anchor="middle" font-size="18px"><text x="759" y="458">М4</text></g><rect x="379" y="148" width="120" height="98" fill="#ffffff" stroke="#000000"/><g fill="#000000" font-family="Helvetica" text-anchor="middle" font-size="18px"><text x="439" y="193">Предмет</text><text x="439" y="215">труда</text></g><rect x="379" y="303" width="120" height="83" fill="#ffffff" stroke="#000000"/><g fill="#000000" font-family="Helvetica" text-anchor="middle" font-size="18px"><text x="439" y="351">Среда</text></g><path d="M 169 41 L 663 41" fill="none" stroke="#000000" stroke-miterlimit="10"/><path d="M 668 41 L 661 44 L 663 41 L 661 37 Z" fill="#000000" stroke="#000000" stroke-miterlimit="10"/><g fill="#000000" font-family="Helvetica" text-anchor="middle" font-size="14px"><rect fill="#ffffff" stroke="none" x="415" y="33" width="10" height="18" stroke-width="0"/><text x="419" y="46">1</text></g><path d="M 169 91 L 349 91 Q 359 91 359 101 L 359 313 Q 359 323 366 323 L 373 323" fill="none" stroke="#000000" stroke-miterlimit="10"/><path d="M 378 323 L 371 327 L 373 323 L 371 320 Z" fill="#000000" stroke="#000000" stroke-miterlimit="10"/><path d="M 169 244 L 219 244 Q 229 244 229 234 L 229 176 Q 229 166 219 166 L 175 166" fill="none" stroke="#000000" stroke-miterlimit="10"/><path d="M 170 166 L 177 162 L 175 166 L 177 169 Z" fill="#000000" stroke="#000000" stroke-miterlimit="10"/><rect x="210" y="164" width="30" height="26" fill="none" stroke="none"/><g fill="#000000" font-family="Helvetica" font-size="18px"><text x="212" y="188">4</text></g><path d="M 169 238 L 199 238 Q 209 238 209 228 L 209 219 Q 209 211 199 211 L 175 211" fill="none" stroke="#000000" stroke-miterlimit="10"/><path d="M 170 211 L 177 207 L 175 211 L 177 214 Z" fill="#000000" stroke="#000000" stroke-miterlimit="10"/><rect x="189" y="205" width="30" height="26" fill="none" stroke="none"/><g fill="#000000" font-family="Helvetica" font-size="18px"><text x="191" y="229">9</text></g><path d="M 669 66 L 549 66 Q 539 66 539 76 L 539 190 Q 539 200 529 200 L 505 200" fill="none" stroke="#000000" stroke-miterlimit="10"/><path d="M 500 200 L 507 197 L 505 200 L 507 204 Z" fill="#000000" stroke="#000000" stroke-miterlimit="10"/><path d="M 669 51 L 175 59" fill="none" stroke="#000000" stroke-miterlimit="10"/><path d="M 170 59 L 177 56 L 175 59 L 177 63 Z" fill="#000000" stroke="#000000" stroke-miterlimit="10"/><g fill="#000000" font-family="Helvetica" text-anchor="middle" font-size="14px"><rect fill="#ffffff" stroke="none" x="415" y="47" width="10" height="18" stroke-width="0"/><text x="419" y="60">2</text></g><path d="M 169 64 L 409 64 Q 419 64 419 74 L 419 82 Q 419 91 429 91 L 663 91" fill="none" stroke="#000000" stroke-miterlimit="10"/><path d="M 668 91 L 661 94 L 663 91 L 661 87 Z" fill="#000000" stroke="#000000" stroke-miterlimit="10"/><g fill="#000000" font-family="Helvetica" text-anchor="middle" font-size="14px"><rect fill="#ffffff" stroke="none" x="415" y="69" width="10" height="18" stroke-width="0"/><text x="419" y="82">7</text></g><path d="M 663 184 L 639 184 Q 629 184 629 194 L 629 202 Q 629 211 639 211 L 663 211" fill="none" stroke="#000000" stroke-miterlimit="10"/><path d="M 668 184 L 661 188 L 663 184 L 661 181 Z" fill="#000000" stroke="#000000" stroke-miterlimit="10"/><path d="M 668 211 L 661 214 L 663 211 L 661 207 Z" fill="#000000" stroke="#000000" stroke-miterlimit="10"/><rect x="635" y="179" width="39" height="26" fill="none" stroke="none"/><g fill="#000000" font-family="Helvetica" font-size="18px"><text x="637" y="203">5</text></g><path d="M 669 486 L 594 486 Q 584 486 584 476 L 584 378 Q 584 368 574 368 L 505 368" fill="none" stroke="#000000" stroke-miterlimit="10"/><path d="M 500 368 L 507 365 L 505 368 L 507 372 Z" fill="#000000" stroke="#000000" stroke-miterlimit="10"/><path d="M 379 197 L 349 197 Q 339 197 339 207 L 339 488 Q 339 498 329 498 L 175 498" fill="none" stroke="#000000" stroke-miterlimit="10"/><path d="M 170 498 L 177 495 L 175 498 L 177 502 Z" fill="#000000" stroke="#000000" stroke-miterlimit="10"/><rect x="322" y="185" width="40" height="26" fill="none" stroke="none"/><g fill="#000000" font-family="Helvetica" font-size="18px"><text x="324" y="209">3</text></g><path d="M 669 368 L 505 368" fill="none" stroke="#000000" stroke-miterlimit="10"/><path d="M 500 368 L 507 364 L 505 368 L 507 371 Z" fill="#000000" stroke="#000000" stroke-miterlimit="10"/><g fill="#000000" font-family="Helvetica" text-anchor="middle" font-size="14px"><rect fill="#ffffff" stroke="none" x="558" y="360" width="54" height="18" stroke-width="0"/><text x="584" y="373">10, 11.3</text></g><path d="M 669 246 L 589 246 Q 579 246 579 256 L 579 308 Q 579 318 569 318 L 505 318" fill="none" stroke="#000000" stroke-miterlimit="10"/><path d="M 500 318 L 507 315 L 505 318 L 507 322 Z" fill="#000000" stroke="#000000" stroke-miterlimit="10"/><g fill="#000000" font-family="Helvetica" text-anchor="middle" font-size="11px"><rect fill="#ffffff" stroke="none" x="564" y="257" width="41" height="53" stroke-width="0"/><text x="584" y="305">10, 11.3</text></g><path d="M 669 126 L 589 126 Q 579 126 579 136 L 579 308 Q 579 318 569 318 L 505 318" fill="none" stroke="#000000" stroke-miterlimit="10"/><path d="M 500 318 L 507 315 L 505 318 L 507 322 Z" fill="#000000" stroke="#000000" stroke-miterlimit="10"/><path d="M 669 169 L 669 169 Q 669 169 659 169 L 549 169 Q 539 169 539 179 L 539 190 Q 539 200 529 200 L 505 200" fill="none" stroke="#000000" stroke-miterlimit="10"/><path d="M 500 200 L 507 197 L 505 200 L 507 204 Z" fill="#000000" stroke="#000000" stroke-miterlimit="10"/><path d="M 669 290 L 669 290 Q 669 290 659 290 L 559 290 Q 549 290 549 280 L 549 210 Q 549 200 539 200 L 509 200 Q 499 200 499 200 L 499 200" fill="none" stroke="#000000" stroke-miterlimit="10"/><path d="M 669 410 L 669 410 Q 669 410 659 410 L 539 410 Q 529 410 529 400 L 529 210 Q 529 200 519 200 L 509 200 Q 499 200 499 200 L 499 200" fill="none" stroke="#000000" stroke-miterlimit="10"/><path d="M 469 385 L 469 449 Q 469 459 479 459 L 663 459" fill="none" stroke="#000000" stroke-miterlimit="10"/><path d="M 668 459 L 661 463 L 663 459 L 661 456 Z" fill="#000000" stroke="#000000" stroke-miterlimit="10"/><path d="M 469 385 L 469 406 Q 469 416 479 416 L 663 416" fill="none" stroke="#000000" stroke-miterlimit="10"/><path d="M 668 416 L 661 419 L 663 416 L 661 412 Z" fill="#000000" stroke="#000000" stroke-miterlimit="10"/><path d="M 499 338 L 663 340" fill="none" stroke="#000000" stroke-miterlimit="10"/><path d="M 668 340 L 661 344 L 663 340 L 661 337 Z" fill="#000000" stroke="#000000" stroke-miterlimit="10"/><g fill="#000000" font-family="Helvetica" text-anchor="middle" font-size="11px"><rect fill="#ffffff" stroke="none" x="560" y="333" width="50" height="14" stroke-width="0"/><text x="584" y="336">11.1, 11.2</text></g><path d="M 499 338 L 499 339 Q 499 339 509 339 L 609 339 Q 619 339 619 329 L 619 306 Q 619 296 629 296 L 663 296" fill="none" stroke="#000000" stroke-miterlimit="10"/><path d="M 668 296 L 661 300 L 663 296 L 661 293 Z" fill="#000000" stroke="#000000" stroke-miterlimit="10"/><path d="M 469 303 L 469 278 Q 469 268 479 268 L 559 268 Q 569 268 569 258 L 569 228 Q 569 218 579 218 L 663 218" fill="none" stroke="#000000" stroke-miterlimit="10"/><path d="M 668 218 L 661 222 L 663 218 L 661 215 Z" fill="#000000" stroke="#000000" stroke-miterlimit="10"/><path d="M 469 303 L 469 278 Q 469 268 479 268 L 559 268 Q 569 268 569 258 L 569 109 Q 569 99 579 99 L 659 99 Q 669 99 669 98 L 669 98" fill="none" stroke="#000000" stroke-miterlimit="10"/><path d="M 669 99 L 668 97 L 669 98 L 670 97 Z" fill="#000000" stroke="#000000" stroke-miterlimit="10"/><path d="M 439 303 L 439 268 Q 439 258 449 258 L 549 258 Q 559 258 559 248 L 559 188 Q 559 178 569 178 L 663 178" fill="none" stroke="#000000" stroke-miterlimit="10"/><path d="M 668 178 L 661 182 L 663 178 L 661 175 Z" fill="#000000" stroke="#000000" stroke-miterlimit="10"/><path d="M 439 303 L 439 268 Q 439 258 449 258 L 549 258 Q 559 258 559 248 L 559 68 Q 559 58 569 58 L 663 58" fill="none" stroke="#000000" stroke-miterlimit="10"/><path d="M 668 58 L 661 62 L 663 58 L 661 55 Z" fill="#000000" stroke="#000000" stroke-miterlimit="10"/><path d="M 663 304 L 639 304 Q 629 304 629 314 L 629 321 Q 629 328 639 328 L 663 328" fill="none" stroke="#000000" stroke-miterlimit="10"/><path d="M 668 304 L 661 308 L 663 304 L 661 301 Z" fill="#000000" stroke="#000000" stroke-miterlimit="10"/><path d="M 668 328 L 661 332 L 663 328 L 661 325 Z" fill="#000000" stroke="#000000" stroke-miterlimit="10"/><path d="M 663 428 L 639 428 Q 629 428 629 438 L 629 443 Q 629 448 639 448 L 663 448" fill="none" stroke="#000000" stroke-miterlimit="10"/><path d="M 668 428 L 661 432 L 663 428 L 661 425 Z" fill="#000000" stroke="#000000" stroke-miterlimit="10"/><path d="M 668 448 L 661 452 L 663 448 L 661 445 Z" fill="#000000" stroke="#000000" stroke-miterlimit="10"/><rect x="635" y="56" width="39" height="24" fill="none" stroke="none"/><g fill="#000000" font-family="Helvetica" font-size="18px"><text x="637" y="80">5</text></g><rect x="636" y="297" width="39" height="26" fill="none" stroke="none"/><g fill="#000000" font-family="Helvetica" font-size="18px"><text x="638" y="321">5</text></g><rect x="635" y="420" width="39" height="26" fill="none" stroke="none"/><g fill="#000000" font-family="Helvetica" font-size="18px"><text x="637" y="444">5</text></g><path d="M 663 63 L 639 63 Q 629 63 629 73 L 629 78 Q 629 83 639 83 L 663 83" fill="none" stroke="#000000" stroke-miterlimit="10"/><path d="M 668 63 L 661 67 L 663 63 L 661 60 Z" fill="#000000" stroke="#000000" stroke-miterlimit="10"/><path d="M 668 83 L 661 87 L 663 83 L 661 80 Z" fill="#000000" stroke="#000000" stroke-miterlimit="10"/><path d="M 9 148 L 114 148 Q 124 148 124 150 L 124 152" fill="none" stroke="#000000" stroke-miterlimit="10"/><path d="M 124 157 L 121 150 L 124 152 L 128 150 Z" fill="#000000" stroke="#000000" stroke-miterlimit="10"/><rect x="9" y="122" width="40" height="26" fill="none" stroke="none"/><g fill="#000000" font-family="Helvetica" font-size="12px"><text x="11" y="140">12</text></g><path d="M 9 28 L 114 28 Q 124 28 124 30 L 124 32" fill="none" stroke="#000000" stroke-miterlimit="10"/><path d="M 124 37 L 121 30 L 124 32 L 128 30 Z" fill="#000000" stroke="#000000" stroke-miterlimit="10"/><rect x="9" y="2" width="40" height="26" fill="none" stroke="none"/><g fill="#000000" font-family="Helvetica" font-size="12px"><text x="11" y="20">12</text></g><path d="M 9 268 L 114 268 Q 124 268 124 270 L 124 272" fill="none" stroke="#000000" stroke-miterlimit="10"/><path d="M 124 277 L 121 270 L 124 272 L 128 270 Z" fill="#000000" stroke="#000000" stroke-miterlimit="10"/><rect x="9" y="242" width="40" height="26" fill="none" stroke="none"/><g fill="#000000" font-family="Helvetica" font-size="12px"><text x="11" y="260">12</text></g><path d="M 9 388 L 114 388 Q 124 388 124 390 L 124 392" fill="none" stroke="#000000" stroke-miterlimit="10"/><path d="M 124 397 L 121 390 L 124 392 L 128 390 Z" fill="#000000" stroke="#000000" stroke-miterlimit="10"/><rect x="9" y="362" width="40" height="26" fill="none" stroke="none"/><g fill="#000000" font-family="Helvetica" font-size="12px"><text x="11" y="380">12</text></g><rect x="409" y="268" width="40" height="26" fill="none" stroke="none"/><g fill="#000000" font-family="Helvetica" font-size="12px"><text x="411" y="286">11.1</text></g><rect x="469" y="271" width="40" height="26" fill="none" stroke="none"/><g fill="#000000" font-family="Helvetica" font-size="12px"><text x="471" y="289">11.2</text></g><path d="M 379 197 L 349 197 Q 339 197 339 207 L 339 347 Q 339 357 329 357 L 169 357" fill="none" stroke="#000000" stroke-miterlimit="10"/><path d="M 379 197 L 349 197 Q 339 197 339 207 L 339 236 Q 339 246 329 246 L 169 246" fill="none" stroke="#000000" stroke-miterlimit="10"/><path d="M 373 197 L 349 197 Q 339 197 339 187 L 339 136 Q 339 126 329 126 L 169 126" fill="none" stroke="#000000" stroke-miterlimit="10"/><path d="M 378 197 L 371 200 L 373 197 L 371 193 Z" fill="#000000" stroke="#000000" stroke-miterlimit="10"/><path d="M 169 202 L 264 202 Q 274 202 274 212 L 274 313 Q 274 323 284 323 L 379 323" fill="none" stroke="#000000" stroke-miterlimit="10"/><path d="M 169 442 L 349 442 Q 359 442 359 432 L 359 333 Q 359 323 369 323 L 379 323" fill="none" stroke="#000000" stroke-miterlimit="10"/><path d="M 169 373 L 264 374 Q 274 374 274 369 L 274 367 Q 274 365 284 365 L 379 365" fill="none" stroke="#000000" stroke-miterlimit="10"/><path d="M 169 488 L 264 488 Q 274 488 274 478 L 274 374 Q 274 364 284 364 L 373 364" fill="none" stroke="#000000" stroke-miterlimit="10"/><path d="M 378 364 L 371 368 L 373 364 L 371 361 Z" fill="#000000" stroke="#000000" stroke-miterlimit="10"/><path d="M 169 254 L 264 254 Q 274 254 274 264 L 274 354 Q 274 364 284 364 L 379 364" fill="none" stroke="#000000" stroke-miterlimit="10"/><path d="M 169 134 L 264 134 Q 274 134 274 144 L 274 354 Q 274 364 284 364 L 379 364" fill="none" stroke="#000000" stroke-miterlimit="10"/><path d="M 169 322 L 379 323" fill="none" stroke="#000000" stroke-miterlimit="10"/><rect x="280" y="301" width="22" height="34" fill="#ffffff" stroke="none"/><g fill="#000000" font-family="Helvetica" font-size="18px"><text x="282" y="325">8</text></g><rect x="277" y="359" width="40" height="26" fill="none" stroke="none"/><g fill="#000000" font-family="Helvetica" font-size="18px"><text x="279" y="383">6</text></g><path d="M 168 370 L 219 370 Q 229 370 229 360 L 229 301 Q 229 291 219 291 L 175 291" fill="none" stroke="#000000" stroke-miterlimit="10"/><path d="M 170 291 L 177 288 L 175 291 L 177 295 Z" fill="#000000" stroke="#000000" stroke-miterlimit="10"/><rect x="188" y="331" width="30" height="26" fill="none" stroke="none"/><g fill="#000000" font-family="Helvetica" font-size="18px"><text x="191" y="355">9</text></g><path d="M 168 364 L 198 364 Q 208 364 208 354 L 208 345 Q 208 336 198 336 L 175 336" fill="none" stroke="#000000" stroke-miterlimit="10"/><path d="M 170 336 L 177 333 L 175 336 L 177 340 Z" fill="#000000" stroke="#000000" stroke-miterlimit="10"/><rect x="210" y="290" width="30" height="26" fill="none" stroke="none"/><g fill="#000000" font-family="Helvetica" font-size="18px"><text x="212" y="314">4</text></g><path d="M 169 122 L 219 122 Q 229 122 229 112 L 229 57 Q 229 47 219 47 L 175 47" fill="none" stroke="#000000" stroke-miterlimit="10"/><path d="M 170 47 L 177 43 L 175 47 L 177 50 Z" fill="#000000" stroke="#000000" stroke-miterlimit="10"/><rect x="189" y="83" width="30" height="26" fill="none" stroke="none"/><g fill="#000000" font-family="Helvetica" font-size="18px"><text x="191" y="107">9</text></g><path d="M 169 113 L 199 113 Q 209 113 209 103 L 209 94 Q 209 85 199 85 L 175 85" fill="none" stroke="#000000" stroke-miterlimit="10"/><path d="M 170 85 L 177 82 L 175 85 L 177 89 Z" fill="#000000" stroke="#000000" stroke-miterlimit="10"/><rect x="215" y="60" width="30" height="26" fill="none" stroke="none"/><g fill="#000000" font-family="Helvetica" font-size="18px"><text x="217" y="84">4</text></g><path d="M 168 483 L 219 483 Q 229 483 229 473 L 229 415 Q 229 405 219 405 L 175 405" fill="none" stroke="#000000" stroke-miterlimit="10"/><path d="M 170 405 L 177 401 L 175 405 L 177 408 Z" fill="#000000" stroke="#000000" stroke-miterlimit="10"/><rect x="188" y="446" width="30" height="26" fill="none" stroke="none"/><g fill="#000000" font-family="Helvetica" font-size="18px"><text x="191" y="470">9</text></g><path d="M 168 479 L 198 479 Q 208 479 208 469 L 208 460 Q 208 452 198 452 L 175 452" fill="none" stroke="#000000" stroke-miterlimit="10"/><path d="M 170 452 L 177 448 L 175 452 L 177 455 Z" fill="#000000" stroke="#000000" stroke-miterlimit="10"/><rect x="210" y="405" width="30" height="26" fill="none" stroke="none"/><g fill="#000000" font-family="Helvetica" font-size="18px"><text x="212" y="429">4</text></g><rect x="509" y="171" width="40" height="26" fill="none" stroke="none"/><g fill="#000000" font-family="Helvetica" font-size="14px"><text x="511" y="191">13</text></g><rect x="479" y="433" width="40" height="26" fill="none" stroke="none"/><g fill="#000000" font-family="Helvetica" font-size="14px"><text x="481" y="453">11.2</text></g><rect x="479" y="392" width="40" height="26" fill="none" stroke="none"/><g fill="#000000" font-family="Helvetica" font-size="14px"><text x="481" y="412">11.1</text></g></g></svg>