<svg xmlns="http://www.w3.org/2000/svg" style="background-color: rgb(255, 255, 255);" width="1055px" height="752px" version="1.1"><defs/><rect x="80" y="59" width="620" height="590" shape-rendering="crispEdges" fill="#ffffff" stroke="#000000"/><path d="M 40 59 L 80 59" shape-rendering="crispEdges" fill="none" stroke="#000000" stroke-miterlimit="10"/><path d="M 40 648.5 L 80 648.5" shape-rendering="crispEdges" fill="none" stroke="#000000" stroke-miterlimit="10"/><path d="M 40 647.88 L 36.5 640.88 L 40 642.63 L 43.5 640.88 Z" fill="#000000" stroke="#000000" stroke-miterlimit="10"/><path d="M 40 60.12 L 43.5 67.12 L 40 65.37 L 36.5 67.12 Z" fill="#000000" stroke="#000000" stroke-miterlimit="10"/><path d="M 40 642.63 L 40 65.37" shape-rendering="crispEdges" fill="none" stroke="#000000" stroke-miterlimit="10"/><path d="M 80 59 L 80 29" shape-rendering="crispEdges" fill="none" stroke="#000000" stroke-miterlimit="10"/><path d="M 699.5 59 L 699.5 29" shape-rendering="crispEdges" fill="none" stroke="#000000" stroke-miterlimit="10"/><path d="M 81.12 29 L 88.12 25.5 L 86.37 29 L 88.12 32.5 Z" fill="#000000" stroke="#000000" stroke-miterlimit="10"/><path d="M 698.88 29 L 691.88 32.5 L 693.63 29 L 691.88 25.5 Z" fill="#000000" stroke="#000000" stroke-miterlimit="10"/><path d="M 86.37 29 L 693.63 29" shape-rendering="crispEdges" fill="none" stroke="#000000" stroke-miterlimit="10"/><rect x="367" y="2.25" width="46" height="21" shape-rendering="crispEdges" fill="#ffffff"/><g text-anchor="middle" font-size="18px" font-family="Helvetica" fill="#000000"><text x="390" y="17.25">4,6 м</text><text x="390" y="40.65"></text></g><rect x="60" y="369" width="30" height="220" shape-rendering="crispEdges" fill="#bfbfbf" stroke="#000000"/><rect x="60" y="119" width="30" height="220" shape-rendering="crispEdges" fill="#bfbfbf" stroke="#000000"/><path d="M 480 749 L 580 649" fill="none" stroke="#000000" stroke-miterlimit="10"/><rect x="460" y="639" width="120" height="10" shape-rendering="crispEdges" fill="#ffffff" stroke="#ffffff"/><path d="M 459.5 649 L 459.5 619" shape-rendering="crispEdges" fill="none" stroke="#000000" stroke-miterlimit="10"/><path d="M 579.5 649 L 579.5 619" shape-rendering="crispEdges" fill="none" stroke="#000000" stroke-miterlimit="10"/><path d="M 461.12 618.5 L 468.13 615.03 L 466.37 618.53 L 468.1 622.03 Z" fill="#000000" stroke="#000000" stroke-miterlimit="10"/><path d="M 578.88 619 L 571.87 622.47 L 573.63 618.97 L 571.9 615.47 Z" fill="#000000" stroke="#000000" stroke-miterlimit="10"/><path d="M 466.37 618.53 L 573.63 618.97" fill="none" stroke="#000000" stroke-miterlimit="10"/><rect x="504.5" y="592" width="31" height="21" shape-rendering="crispEdges" fill="#ffffff"/><g text-anchor="middle" font-size="18px" font-family="Helvetica" fill="#000000"><text x="520" y="607">1 м</text><text x="520" y="630.4"></text></g><ellipse cx="580" cy="264" rx="40" ry="40" fill="#ffffff" stroke="#000000"/><ellipse cx="580" cy="264" rx="36" ry="36" fill="none" stroke="#000000"/><path d="M 650 225 L 670 225 L 670 245 L 650 245 Z" shape-rendering="crispEdges" fill="#ffffff" stroke="#000000" stroke-miterlimit="10"/><path d="M 660 230 L 660 240 M 655 235 L 665 235" shape-rendering="crispEdges" fill="#ffffff" stroke="#000000" stroke-miterlimit="10"/><path d="M 90 69 L 120 89 L 90 109 Z" fill="#ffffff" stroke="#000000" stroke-miterlimit="10"/><path d="M 580 614 L 650 614 L 670 634 L 670 649 L 600 649 L 580 629 L 580 614 Z" fill="#ffffff" stroke="#000000" stroke-miterlimit="10"/><path d="M 600 649 L 600 634 L 580 614 M 600 634 L 670 634" fill="#ffffff" stroke="#000000" stroke-miterlimit="10"/><path d="M 660 599 L 690 619 L 660 639 Z" fill="#ffffff" stroke="#000000" stroke-miterlimit="10"/><ellipse cx="765" cy="54" rx="15" ry="15" fill="#ffffff" stroke="#000000"/><ellipse cx="765" cy="54" rx="11" ry="11" fill="none" stroke="#000000"/><rect x="740" y="79" width="50" height="30" shape-rendering="crispEdges" fill="#ffffff" stroke="#000000"/><path d="M 755 129 L 775 129 L 775 149 L 755 149 Z" shape-rendering="crispEdges" fill="#ffffff" stroke="#000000" stroke-miterlimit="10"/><path d="M 765 134 L 765 144 M 760 139 L 770 139" shape-rendering="crispEdges" fill="#ffffff" stroke="#000000" stroke-miterlimit="10"/><path d="M 754.5 169 L 779.5 184 L 754.5 199 Z" fill="#ffffff" stroke="#000000" stroke-miterlimit="10"/><path d="M 730 214 L 800 214 L 820 234 L 820 244 L 750 244 L 730 224 L 730 214 Z" fill="#ffffff" stroke="#000000" stroke-miterlimit="10"/><path d="M 750 244 L 750 234 L 730 214 M 750 234 L 820 234" fill="#ffffff" stroke="#000000" stroke-miterlimit="10"/><path d="M 730 279 L 820 279" shape-rendering="crispEdges" fill="none" stroke="#000000" stroke-miterlimit="10" stroke-dasharray="3 3"/><g font-size="18px" font-family="Helvetica" fill="#000000"><text x="843" y="64.75">Офисное кресло</text></g><g font-size="18px" font-family="Helvetica" fill="#000000"><text x="843" y="103.75">Рабочее место</text></g><g font-size="18px" font-family="Helvetica" fill="#000000"><text x="841" y="147.75">Дымоизвещатель</text></g><g font-size="18px" font-family="Helvetica" fill="#000000"><text x="843" y="196.75">Огнетушитель</text></g><g font-size="18px" font-family="Helvetica" fill="#000000"><text x="843" y="239.75">Распределительный щит</text></g><g font-size="18px" font-family="Helvetica" fill="#000000"><text x="843" y="287.75">Путь эвакуации</text></g><g font-size="18px" font-family="Helvetica" fill="#000000"><text x="3" y="365.75">5 м</text></g><path d="M 428.5 297.88 L 425 290.88 L 428.5 292.63 L 432 290.88 Z" fill="#000000" stroke="#000000" stroke-miterlimit="10"/><path d="M 428.5 199 L 428.5 292.63" shape-rendering="crispEdges" fill="none" stroke="#000000" stroke-miterlimit="10"/><path d="M 494.5 680.38 L 491 673.38 L 494.5 675.13 L 498 673.38 Z" fill="#000000" stroke="#000000" stroke-miterlimit="10"/><path d="M 494.5 581.5 L 494.5 675.13" shape-rendering="crispEdges" fill="none" stroke="#000000" stroke-miterlimit="10"/><path d="M 549.5 677.88 L 546 670.88 L 549.5 672.63 L 553 670.88 Z" fill="#000000" stroke="#000000" stroke-miterlimit="10"/><path d="M 549.5 579 L 549.5 672.63" shape-rendering="crispEdges" fill="none" stroke="#000000" stroke-miterlimit="10"/><path d="M 398.88 261.49 L 391.85 264.92 L 393.63 261.44 L 391.92 257.92 Z" fill="#000000" stroke="#000000" stroke-miterlimit="10"/><path d="M 350 261 L 393.63 261.44" fill="none" stroke="#000000" stroke-miterlimit="10"/><path d="M 91.12 270.5 L 98.12 267 L 96.37 270.5 L 98.12 274 Z" fill="#000000" stroke="#000000" stroke-miterlimit="10"/><path d="M 178.88 270.5 L 171.88 274 L 173.63 270.5 L 171.88 267 Z" fill="#000000" stroke="#000000" stroke-miterlimit="10"/><path d="M 96.37 270.5 L 173.63 270.5" shape-rendering="crispEdges" fill="none" stroke="#000000" stroke-miterlimit="10"/><rect x="112" y="255.25" width="46" height="21" shape-rendering="crispEdges" fill="#ffffff"/><g text-anchor="middle" font-size="18px" font-family="Helvetica" fill="#000000"><text x="135" y="278">1,2 м</text></g><path d="M 91.12 508.5 L 98.12 505 L 96.37 508.5 L 98.12 512 Z" fill="#000000" stroke="#000000" stroke-miterlimit="10"/><path d="M 178.88 508.5 L 171.88 512 L 173.63 508.5 L 171.88 505 Z" fill="#000000" stroke="#000000" stroke-miterlimit="10"/><path d="M 96.37 508.5 L 173.63 508.5" shape-rendering="crispEdges" fill="none" stroke="#000000" stroke-miterlimit="10"/><rect x="112" y="493.25" width="46" height="21" shape-rendering="crispEdges" fill="#ffffff"/><g text-anchor="middle" font-size="18px" font-family="Helvetica" fill="#000000"><text x="135" y="516">1,2 м</text></g><rect x="505" y="163" width="170" height="60" shape-rendering="crispEdges" fill="#ffffff" stroke="#000000"/><ellipse cx="260" cy="264" rx="40" ry="40" fill="#ffffff" stroke="#000000"/><ellipse cx="260" cy="264" rx="36" ry="36" fill="none" stroke="#000000"/><path d="M 330 227 L 350 227 L 350 247 L 330 247 Z" shape-rendering="crispEdges" fill="#ffffff" stroke="#000000" stroke-miterlimit="10"/><path d="M 340 232 L 340 242 M 335 237 L 345 237" shape-rendering="crispEdges" fill="#ffffff" stroke="#000000" stroke-miterlimit="10"/><rect x="185" y="164" width="170" height="60" shape-rendering="crispEdges" fill="#ffffff" stroke="#000000"/><path d="M 451.12 261.01 L 458.15 257.58 L 456.37 261.06 L 458.08 264.58 Z" fill="#000000" stroke="#000000" stroke-miterlimit="10"/><path d="M 456.37 261.06 L 500 261.5" fill="none" stroke="#000000" stroke-miterlimit="10"/><ellipse cx="580" cy="514" rx="40" ry="40" fill="#ffffff" stroke="#000000"/><ellipse cx="580" cy="514" rx="36" ry="36" fill="none" stroke="#000000"/><path d="M 650 471 L 670 471 L 670 491 L 650 491 Z" shape-rendering="crispEdges" fill="#ffffff" stroke="#000000" stroke-miterlimit="10"/><path d="M 660 476 L 660 486 M 655 481 L 665 481" shape-rendering="crispEdges" fill="#ffffff" stroke="#000000" stroke-miterlimit="10"/><path d="M 428.5 543.88 L 425 536.88 L 428.5 538.63 L 432 536.88 Z" fill="#000000" stroke="#000000" stroke-miterlimit="10"/><path d="M 428.5 445 L 428.5 538.63" shape-rendering="crispEdges" fill="none" stroke="#000000" stroke-miterlimit="10"/><path d="M 398.88 507.49 L 391.85 510.92 L 393.63 507.44 L 391.92 503.92 Z" fill="#000000" stroke="#000000" stroke-miterlimit="10"/><path d="M 350 507 L 393.63 507.44" fill="none" stroke="#000000" stroke-miterlimit="10"/><rect x="505" y="409" width="170" height="60" shape-rendering="crispEdges" fill="#ffffff" stroke="#000000"/><ellipse cx="260" cy="514" rx="40" ry="40" fill="#ffffff" stroke="#000000"/><ellipse cx="260" cy="514" rx="36" ry="36" fill="none" stroke="#000000"/><path d="M 330 473 L 350 473 L 350 493 L 330 493 Z" shape-rendering="crispEdges" fill="#ffffff" stroke="#000000" stroke-miterlimit="10"/><path d="M 340 478 L 340 488 M 335 483 L 345 483" shape-rendering="crispEdges" fill="#ffffff" stroke="#000000" stroke-miterlimit="10"/><rect x="185" y="410" width="170" height="60" shape-rendering="crispEdges" fill="#ffffff" stroke="#000000"/><path d="M 193 545.12 L 196.5 552.12 L 193 550.37 L 189.5 552.12 Z" fill="#000000" stroke="#000000" stroke-miterlimit="10"/><path d="M 193 643.88 L 189.5 636.88 L 193 638.63 L 196.5 636.88 Z" fill="#000000" stroke="#000000" stroke-miterlimit="10"/><path d="M 193 550.37 L 193 638.63" shape-rendering="crispEdges" fill="none" stroke="#000000" stroke-miterlimit="10"/><rect x="170" y="579.25" width="46" height="21" shape-rendering="crispEdges" fill="#ffffff"/><g text-anchor="middle" font-size="18px" font-family="Helvetica" fill="#000000"><text x="193" y="602">1,2 м</text></g><path d="M 182.5 59.62 L 186 66.62 L 182.5 64.87 L 179 66.62 Z" fill="#000000" stroke="#000000" stroke-miterlimit="10"/><path d="M 182.5 158.38 L 179 151.38 L 182.5 153.13 L 186 151.38 Z" fill="#000000" stroke="#000000" stroke-miterlimit="10"/><path d="M 182.5 64.87 L 182.5 153.13" shape-rendering="crispEdges" fill="none" stroke="#000000" stroke-miterlimit="10"/><rect x="159.5" y="93.75" width="46" height="21" shape-rendering="crispEdges" fill="#ffffff"/><g text-anchor="middle" font-size="18px" font-family="Helvetica" fill="#000000"><text x="182.5" y="116.5">1,2 м</text></g></svg>